<?xml version="1.0" encoding="UTF-8"?>
<svg width="1600" height="1600" viewBox="0 0 1600 1600" xmlns="http://www.w3.org/2000/svg">
  <defs>
    <linearGradient id="bg" x1="0" y1="0" x2="0" y2="1"><stop offset="0%" stop-color="#fff3f7"/><stop offset="100%" stop-color="#fff8ef"/></linearGradient>
    <linearGradient id="purple" x1="0" y1="0" x2="1" y2="0"><stop offset="0%" stop-color="#6d55ff"/><stop offset="100%" stop-color="#ff7ca4"/></linearGradient>
    <linearGradient id="orange" x1="0" y1="0" x2="1" y2="0"><stop offset="0%" stop-color="#ffb94b"/><stop offset="100%" stop-color="#ff8e63"/></linearGradient>
    <linearGradient id="green" x1="0" y1="0" x2="1" y2="0"><stop offset="0%" stop-color="#12c27d"/><stop offset="100%" stop-color="#69e7aa"/></linearGradient>
    <linearGradient id="pink" x1="0" y1="0" x2="1" y2="0"><stop offset="0%" stop-color="#ff6079"/><stop offset="100%" stop-color="#ff7aa8"/></linearGradient>
  </defs>
  <rect width="1600" height="1600" fill="url(#bg)"/>
  <circle cx="1420" cy="80" r="220" fill="#ffd9c7" opacity="0.6"/>
  <circle cx="120" cy="1470" r="210" fill="#ddd4ff" opacity="0.5"/>
  <rect x="24" y="24" width="1552" height="1552" rx="34" fill="rgba(255,255,255,0.70)" stroke="rgba(87,54,140,0.12)"/>
  <text x="60" y="76" font-size="18" letter-spacing="3" fill="#c75f74">UNIVERSAL AGENT COMMAND</text>
  <text x="60" y="134" font-size="58" font-weight="700" fill="#281d3f">Run the agent fleet like an operations room.</text>
  <text x="60" y="176" font-size="21" fill="#7b738d">Codex, Claude, Gemini, and OpenClaw in one provider-neutral monitoring board.</text>

  <rect x="60" y="220" width="1010" height="420" rx="32" fill="rgba(255,255,255,0.84)" stroke="rgba(87,54,140,0.12)"/>
  <text x="90" y="266" font-size="18" letter-spacing="2" fill="#c75f74">CONTROL ROOM</text>
  <text x="90" y="306" font-size="34" font-weight="700" fill="#281d3f">Fleet pulse</text>
  <circle cx="250" cy="445" r="132" fill="none" stroke="#e9e7ff" stroke-width="28"/>
  <circle cx="250" cy="445" r="132" fill="none" stroke="url(#purple)" stroke-width="28" stroke-dasharray="415.00000000000006 999" stroke-linecap="round" transform="rotate(-90 250 445)"/>
  <text x="250" y="454" text-anchor="middle" font-size="72" font-weight="700" fill="#281d3f">4</text>
  <text x="250" y="486" text-anchor="middle" font-size="16" letter-spacing="2" fill="#7b738d">AGENTS</text>
  <text x="420" y="356" font-size="24" font-weight="700" fill="#281d3f">Discovery confidence</text>
  <text x="860" y="356" font-size="20" fill="#7b738d">50% trusted</text>
  <rect x="420" y="382" width="560" height="36" rx="18" fill="#ecebff"/>
  <rect x="420" y="382" width="140" height="36" rx="18" fill="url(#green)"/>
  <rect x="560" y="382" width="140" height="36" fill="url(#orange)"/>
  <rect x="700" y="382" width="280" height="36" rx="18" fill="url(#pink)"/>
  <text x="420" y="458" font-size="18" fill="#281d3f">Provider mix</text>
  
  <text x="420" y="498" font-size="18" fill="#281d3f">anthropic: 1</text>

  <text x="420" y="526" font-size="18" fill="#281d3f">google: 1</text>

  <text x="420" y="554" font-size="18" fill="#281d3f">openai: 1</text>

  <text x="420" y="582" font-size="18" fill="#281d3f">openclaw: 1</text>


  <rect x="1098" y="220" width="442" height="420" rx="32" fill="rgba(255,255,255,0.84)" stroke="rgba(87,54,140,0.12)"/>
  <text x="1132" y="266" font-size="18" letter-spacing="2" fill="#c75f74">TELEMETRY</text>
  <text x="1132" y="306" font-size="34" font-weight="700" fill="#281d3f">Pressure radar</text>
  <circle cx="1260" cy="446" r="106" fill="none" stroke="#ecebff" stroke-width="24"/>
  <circle cx="1260" cy="446" r="106" fill="none" stroke="#18bb7d" stroke-width="24" stroke-dasharray="0 999" transform="rotate(-90 1260 446)"/>
  <circle cx="1260" cy="446" r="106" fill="none" stroke="#ff9c3f" stroke-width="24" stroke-dasharray="0 999" transform="rotate(-90 1260 446)"/>
  <text x="1260" y="454" text-anchor="middle" font-size="52" font-weight="700" fill="#281d3f">4</text>
  <text x="1260" y="486" text-anchor="middle" font-size="16" fill="#7b738d">heartbeat set</text>
  <text x="1380" y="392" font-size="18" fill="#281d3f">Healthy 0</text>
  <text x="1380" y="432" font-size="18" fill="#281d3f">Delayed 0</text>
  <text x="1380" y="472" font-size="18" fill="#281d3f">Stale 4</text>
  <text x="1132" y="556" font-size="18" fill="#7b738d">Average CPU 56.1%</text>
  <rect x="1132" y="570" width="340" height="16" rx="8" fill="#ecebff"/><rect x="1132" y="570" width="190.74" height="16" rx="8" fill="#6d55ff"/>
  <text x="1132" y="614" font-size="18" fill="#7b738d">Average memory 66.5%</text>
  <rect x="1132" y="628" width="340" height="16" rx="8" fill="#e8fff4"/><rect x="1132" y="628" width="226.1" height="16" rx="8" fill="#18bb7d"/>

  <rect x="60" y="674" width="360" height="140" rx="28" fill="#f3f1ff"/><text x="88" y="718" font-size="18" fill="#7b738d">Confirmed agents</text><text x="88" y="774" font-size="52" font-weight="700" fill="#18bb7d">1</text>
  <rect x="438" y="674" width="360" height="140" rx="28" fill="#fff1e2"/><text x="466" y="718" font-size="18" fill="#7b738d">24h spend</text><text x="466" y="774" font-size="52" font-weight="700" fill="#ff9c3f">$22.80</text>
  <rect x="816" y="674" width="360" height="140" rx="28" fill="#fff0f4"/><text x="844" y="718" font-size="18" fill="#7b738d">Stale HB</text><text x="844" y="774" font-size="52" font-weight="700" fill="#ff5f7b">4</text>
  <rect x="1194" y="674" width="346" height="140" rx="28" fill="#eef0ff"/><text x="1222" y="718" font-size="18" fill="#7b738d">Network flow</text><text x="1222" y="774" font-size="44" font-weight="700" fill="#5d72f2">6260 kbps</text>

  <rect x="60" y="850" width="1000" height="680" rx="32" fill="rgba(255,255,255,0.86)" stroke="rgba(87,54,140,0.12)"/>
  <text x="94" y="898" font-size="18" letter-spacing="2" fill="#c75f74">PROCESSES</text>
  <text x="94" y="938" font-size="34" font-weight="700" fill="#281d3f">Agent telemetry</text>
  
    <g transform="translate(94,972)">
      <rect width="460" height="220" rx="26" fill="rgba(255,255,255,0.96)" stroke="rgba(87,54,140,0.12)"/>
      <rect width="9" height="220" rx="4" fill="#18bb7d"/>
      <text x="26" y="34" font-size="13" letter-spacing="2" fill="#c75f74">CODEX</text>
      <text x="26" y="66" font-size="28" font-weight="700" fill="#281d3f">agent-codex-01</text>
      <rect x="26" y="84" width="125" height="28" rx="14" fill="rgba(255,255,255,0.84)" stroke="#ff5f7b"/>
      <text x="46" y="103" font-size="13" fill="#ff5f7b">openai</text>
      <circle cx="412" cy="98" r="9" fill="#ff5f7b"/>
      <text x="26" y="136" font-size="15" fill="#7b738d">Generate dashboard and seed data</text>
      <text x="26" y="160" font-size="14" fill="#7b738d">Heartbeat 666m ago</text>
      <text x="26" y="184" font-size="13" fill="#7b738d">CPU 18%  MEM 612 MB  IO 90r/46w</text>
      <rect x="26" y="194" width="300" height="10" rx="5" fill="#ecebff"/>
      <rect x="26" y="194" width="294" height="10" rx="5" fill="url(#purple)"/>
      <rect x="338" y="194" width="90" height="10" rx="5" fill="#e7fff3"/>
      <rect x="338" y="194" width="54.9" height="10" rx="5" fill="#18bb7d"/>
    </g>
  
    <g transform="translate(560,972)">
      <rect width="460" height="220" rx="26" fill="rgba(255,255,255,0.96)" stroke="rgba(87,54,140,0.12)"/>
      <rect width="9" height="220" rx="4" fill="#ff9c3f"/>
      <text x="26" y="34" font-size="13" letter-spacing="2" fill="#c75f74">CLAUDE</text>
      <text x="26" y="66" font-size="28" font-weight="700" fill="#281d3f">agent-claude-02</text>
      <rect x="26" y="84" width="125" height="28" rx="14" fill="rgba(255,255,255,0.84)" stroke="#ff5f7b"/>
      <text x="46" y="103" font-size="13" fill="#ff5f7b">anthropic</text>
      <circle cx="412" cy="98" r="9" fill="#ff5f7b"/>
      <text x="26" y="136" font-size="15" fill="#7b738d">Awaiting review task</text>
      <text x="26" y="160" font-size="14" fill="#7b738d">Heartbeat 669m ago</text>
      <text x="26" y="184" font-size="13" fill="#7b738d">CPU 6%  MEM 420 MB  IO 24r/18w</text>
      <rect x="26" y="194" width="300" height="10" rx="5" fill="#ecebff"/>
      <rect x="26" y="194" width="246" height="10" rx="5" fill="url(#purple)"/>
      <rect x="338" y="194" width="90" height="10" rx="5" fill="#e7fff3"/>
      <rect x="338" y="194" width="37.800000000000004" height="10" rx="5" fill="#18bb7d"/>
    </g>
  
    <g transform="translate(94,1210)">
      <rect width="460" height="220" rx="26" fill="rgba(255,255,255,0.96)" stroke="rgba(87,54,140,0.12)"/>
      <rect width="9" height="220" rx="4" fill="#ff5f7b"/>
      <text x="26" y="34" font-size="13" letter-spacing="2" fill="#c75f74">GEMINI</text>
      <text x="26" y="66" font-size="28" font-weight="700" fill="#281d3f">agent-gemini-03</text>
      <rect x="26" y="84" width="125" height="28" rx="14" fill="rgba(255,255,255,0.84)" stroke="#ff5f7b"/>
      <text x="46" y="103" font-size="13" fill="#ff5f7b">google</text>
      <circle cx="412" cy="98" r="9" fill="#ff5f7b"/>
      <text x="26" y="136" font-size="15" fill="#7b738d">Correlate workspace events with pod scan</text>
      <text x="26" y="160" font-size="14" fill="#7b738d">Heartbeat 667m ago</text>
      <text x="26" y="184" font-size="13" fill="#7b738d">CPU 27%  MEM 734 MB  IO 140r/112w</text>
      <rect x="26" y="194" width="300" height="10" rx="5" fill="#ecebff"/>
      <rect x="26" y="194" width="189" height="10" rx="5" fill="url(#purple)"/>
      <rect x="338" y="194" width="90" height="10" rx="5" fill="#e7fff3"/>
      <rect x="338" y="194" width="65.7" height="10" rx="5" fill="#18bb7d"/>
    </g>
  
    <g transform="translate(560,1210)">
      <rect width="460" height="220" rx="26" fill="rgba(255,255,255,0.96)" stroke="rgba(87,54,140,0.12)"/>
      <rect width="9" height="220" rx="4" fill="#ff5f7b"/>
      <text x="26" y="34" font-size="13" letter-spacing="2" fill="#c75f74">OPENCLAW</text>
      <text x="26" y="66" font-size="28" font-weight="700" fill="#281d3f">agent-openclaw-04</text>
      <rect x="26" y="84" width="125" height="28" rx="14" fill="rgba(255,255,255,0.84)" stroke="#ff5f7b"/>
      <text x="46" y="103" font-size="13" fill="#ff5f7b">openclaw</text>
      <circle cx="412" cy="98" r="9" fill="#ff5f7b"/>
      <text x="26" y="136" font-size="15" fill="#7b738d">Retry after missing heartbeat</text>
      <text x="26" y="160" font-size="14" fill="#7b738d">Heartbeat 712m ago</text>
      <text x="26" y="184" font-size="13" fill="#7b738d">CPU 2%  MEM 188 MB  IO 8r/5w</text>
      <rect x="26" y="194" width="300" height="10" rx="5" fill="#ecebff"/>
      <rect x="26" y="194" width="171" height="10" rx="5" fill="url(#purple)"/>
      <rect x="338" y="194" width="90" height="10" rx="5" fill="#e7fff3"/>
      <rect x="338" y="194" width="17.1" height="10" rx="5" fill="#18bb7d"/>
    </g>

  <rect x="1090" y="850" width="450" height="330" rx="32" fill="rgba(255,255,255,0.86)" stroke="rgba(87,54,140,0.12)"/>
  <text x="1124" y="898" font-size="18" letter-spacing="2" fill="#c75f74">HOTSPOTS</text>
  <text x="1124" y="938" font-size="34" font-weight="700" fill="#281d3f">Host pressure</text>
  
  <text x="1124" y="1000" font-size="20" fill="#281d3f">k8s-node-a</text>
  <text x="1124" y="1022" font-size="14" fill="#7b738d">cloud · CPU 59% · MEM 56% · DISK 47%</text>

  <text x="1124" y="1074" font-size="20" fill="#281d3f">design-laptop-01</text>
  <text x="1124" y="1096" font-size="14" fill="#7b738d">endpoint · CPU 42% · MEM 69% · DISK 61%</text>

  <text x="1124" y="1148" font-size="20" fill="#281d3f">build-server-01</text>
  <text x="1124" y="1170" font-size="14" fill="#7b738d">server · CPU 67% · MEM 75% · DISK 72%</text>


  <rect x="1090" y="1200" width="450" height="330" rx="32" fill="rgba(255,255,255,0.86)" stroke="rgba(87,54,140,0.12)"/>
  <text x="1124" y="1248" font-size="18" letter-spacing="2" fill="#c75f74">EXECUTION</text>
  <text x="1124" y="1288" font-size="34" font-weight="700" fill="#281d3f">Recent jobs</text>
  
  <circle cx="1142" cy="1344" r="9" fill="#6d55ff"/>
  <text x="1164" y="1350" font-size="19" fill="#281d3f">Correlate endpoint and workspace signals</text>
  <text x="1164" y="1372" font-size="14" fill="#7b738d">google · k8s-node-a · 1500s</text>

  <circle cx="1142" cy="1414" r="9" fill="#6d55ff"/>
  <text x="1164" y="1420" font-size="19" fill="#281d3f">Build multi-agent fleet monitor MVP</text>
  <text x="1164" y="1442" font-size="14" fill="#7b738d">openai · design-laptop-01 · 1860s</text>

  <circle cx="1142" cy="1484" r="9" fill="#6d55ff"/>
  <text x="1164" y="1490" font-size="19" fill="#281d3f">Review stale heartbeats</text>
  <text x="1164" y="1512" font-size="14" fill="#7b738d">anthropic · build-server-01 · 900s</text>

</svg>